HIERARCHY
ROOT Body Controller
{
	OFFSET	0.00	0.00	0.00
	CHANNELS 6 Xposition Yposition Zposition Zrotation Xrotation Yrotation
	JOINT Body Controller.001
	{
		OFFSET	 0.000000	-0.036916	-0.004642
		CHANNELS 3 Zrotation Xrotation Yrotation
		JOINT Body Controller.002
		{
			OFFSET	 0.000000	 0.000000	 0.076729
			CHANNELS 3 Zrotation Xrotation Yrotation
			JOINT Body Controller.003
			{
				OFFSET	 0.000000	 0.000000	 0.078516
				CHANNELS 3 Zrotation Xrotation Yrotation
				JOINT Body Controller.004
				{
					OFFSET	 0.000000	 0.000000	 0.042842
					CHANNELS 3 Zrotation Xrotation Yrotation
					End Site
					{
						OFFSET	 0.000000	 0.000000	 0.042842
					}
				}
			}
			JOINT Shoulder.L
			{
				OFFSET	 0.000000	 0.000000	 0.078516
				CHANNELS 3 Zrotation Xrotation Yrotation
				JOINT Upperarm.L
				{
					OFFSET	-0.018201	 0.028733	 0.072586
					CHANNELS 3 Zrotation Xrotation Yrotation
					JOINT Forearm.L
					{
						OFFSET	 0.000000	 0.000000	 0.097523
						CHANNELS 3 Zrotation Xrotation Yrotation
						JOINT Hand.L 1
						{
							OFFSET	 0.000000	 0.000000	 0.104201
							CHANNELS 3 Zrotation Xrotation Yrotation
							End Site
							{
								OFFSET	 0.000000	 0.000000	 0.104201
							}
						}
					}
				}
			}
			JOINT Shoulder.R
			{
				OFFSET	 0.000000	 0.000000	 0.078516
				CHANNELS 3 Zrotation Xrotation Yrotation
				JOINT Upperarm.R
				{
					OFFSET	 0.018201	 0.028733	 0.072586
					CHANNELS 3 Zrotation Xrotation Yrotation
					JOINT Forearm.R
					{
						OFFSET	-0.000000	 0.000000	 0.097523
						CHANNELS 3 Zrotation Xrotation Yrotation
						JOINT Hand.R 1
						{
							OFFSET	 0.000000	 0.000000	 0.104201
							CHANNELS 3 Zrotation Xrotation Yrotation
							End Site
							{
								OFFSET	 0.000000	 0.000000	 0.104201
							}
						}
					}
				}
			}
		}
	}
	JOINT Hip
	{
		OFFSET	 0.000000	 0.025198	-0.007161
		CHANNELS 3 Zrotation Xrotation Yrotation
		JOINT Upperleg.L
		{
			OFFSET	 0.037329	-0.035320	 0.000704
			CHANNELS 3 Zrotation Xrotation Yrotation
			JOINT Foreleg.L
			{
				OFFSET	-0.000000	 0.000000	 0.142509
				CHANNELS 3 Zrotation Xrotation Yrotation
				JOINT Foot.L 1
				{
					OFFSET	 0.000000	 0.000000	 0.128640
					CHANNELS 3 Zrotation Xrotation Yrotation
					End Site
					{
						OFFSET	 0.000000	 0.000000	 0.128640
					}
				}
				JOINT Heel.L
				{
					OFFSET	-0.003987	 0.000323	 0.137245
					CHANNELS 3 Zrotation Xrotation Yrotation
					End Site
					{
						OFFSET	-0.003987	 0.000323	 0.137245
					}
				}
			}
		}
		JOINT Upperleg.R
		{
			OFFSET	 0.037329	 0.035320	 0.000704
			CHANNELS 3 Zrotation Xrotation Yrotation
			JOINT Foreleg.R
			{
				OFFSET	 0.000000	 0.000000	 0.142509
				CHANNELS 3 Zrotation Xrotation Yrotation
				JOINT Foot.R 1
				{
					OFFSET	 0.000000	 0.000000	 0.128640
					CHANNELS 3 Zrotation Xrotation Yrotation
					End Site
					{
						OFFSET	 0.000000	 0.000000	 0.128640
					}
				}
				JOINT Heel.R
				{
					OFFSET	 0.003987	 0.000323	 0.137245
					CHANNELS 3 Zrotation Xrotation Yrotation
					End Site
					{
						OFFSET	 0.003987	 0.000323	 0.137245
					}
				}
			}
		}
	}
}
MOTION
Frames:    11
Frame Time: 0.01666667
 0.013844	 0.422560	 0.180379	-98.381690	-21.166520	-148.019100	-0.000029	-71.966360	 180.000000	-0.000009	 27.986970	 0.000000	 0.000000	 1.202067	 0.000000	 0.000000	-10.243090	-0.000000	 148.635400	-78.341930	-108.121200	-55.835090	 15.045070	-66.503510	-22.866730	-52.448230	-36.119270	 7.294230	-19.499080	 8.888519	-148.635400	-78.341930	 108.121200	 56.918750	 13.278240	 71.247130	 40.471670	-77.876600	 31.258680	 58.165570	 12.305980	-2.083419	-90.000010	-0.000009	-180.000000	 69.842220	-14.072750	-172.218600	 81.408450	-12.598560	-109.569500	 39.656430	 89.043660	 60.588940	-88.575780	 30.995550	-2.561642	 109.011300	-17.751290	 173.937700	-66.754090	-11.274940	 96.054020	 51.443050	 68.028850	-137.591000	 88.575770	 30.995540	 2.561643
 0.020699	 0.422055	 0.172438	-99.782240	-18.422890	-149.372700	-0.000029	-71.966360	 180.000000	-0.000009	 27.986970	 0.000000	 0.000000	 1.202067	 0.000000	 0.000000	-10.243090	-0.000000	 148.635400	-78.341930	-108.121200	-54.113360	 16.227050	-64.859830	-28.361790	-54.626170	-44.322950	 8.883205	-20.802130	 10.448500	-148.635400	-78.341930	 108.121200	 53.517470	 14.848820	 69.882940	 60.748110	-78.397830	 52.736650	 59.993880	 11.112540	-0.849478	-90.000010	-0.000009	-180.000000	 68.646710	-7.772086	-170.211600	 79.783710	-13.451200	-112.428600	 38.984590	 88.439030	 60.594450	-88.575780	 30.995550	-2.561642	 111.711100	-13.717500	 170.491700	-61.998490	-13.295180	 100.230000	 53.341790	 67.101650	-138.521000	 88.575770	 30.995540	 2.561643
 0.034589	 0.421088	 0.156206	-102.352000	-12.793940	-151.842300	-0.000029	-71.966360	 180.000000	-0.000009	 27.986970	 0.000000	 0.000000	 1.202067	 0.000000	 0.000000	-10.243090	-0.000000	 148.635400	-78.341930	-108.121200	-51.401650	 18.408530	-61.749680	-37.268450	-55.905760	-58.226960	 12.602170	-25.470430	 13.382550	-148.635400	-78.341930	 108.121200	 46.761360	 18.422850	 66.870060	 87.452670	-74.545910	 82.754340	 63.375790	 7.666189	 3.653167	-90.000010	-0.000009	-180.000000	 65.356670	 4.573086	-165.558300	 76.083580	-14.780460	-117.644300	 45.167830	 86.812790	 53.172730	-88.575780	 30.995550	-2.561642	 118.519200	-7.695878	 162.441500	-50.709620	-16.863240	 108.893900	 57.161380	 65.055240	-140.673900	 88.575770	 30.995540	 2.561643
 0.041985	 0.420601	 0.147491	-103.589500	-9.778015	-153.023500	-0.000029	-71.966360	 180.000000	-0.000009	 27.986970	 0.000000	 0.000000	 1.202067	 0.000000	 0.000000	-10.243090	-0.000000	 148.635400	-78.341930	-108.121200	-49.912720	 19.624390	-60.227970	-41.884840	-56.071880	-65.582980	 15.018120	-28.018030	 15.200350	-148.635400	-78.341930	 108.121200	 43.293830	 20.511520	 65.197490	 91.989200	-71.516430	 89.551820	 65.089640	 5.457169	 7.236918	-90.000010	-0.000009	-180.000000	 62.992810	 10.735460	-162.584000	 73.818660	-15.299110	-120.142500	 47.948060	 85.808720	 49.771530	-88.575780	 30.995550	-2.561642	 122.840300	-5.819070	 157.554900	-43.795630	-18.462010	 113.283800	 58.495860	 64.221530	-141.177200	 88.575770	 30.995540	 2.561643
 0.055689	 0.419740	 0.131230	-105.672700	-4.198655	-154.997000	-0.000029	-71.966360	 180.000000	-0.000009	 27.986970	 0.000000	 0.000000	 1.202067	 0.000000	 0.000000	-10.243090	-0.000000	 148.635400	-78.341930	-108.121200	-47.403390	 21.734310	-57.829440	-47.237820	-55.341450	-75.530200	 20.168560	-33.951440	 18.699780	-148.635400	-78.341930	 108.121200	 37.517950	 24.541240	 61.990410	 90.736060	-66.102390	 93.421050	 68.329740	 1.134556	 16.064890	-90.000010	-0.000009	-180.000000	 57.020600	 20.873620	-155.628700	 68.835900	-15.990170	-124.290600	 51.542480	 83.827020	 45.071400	-88.575780	 30.995550	-2.561642	 131.748600	-5.589198	 147.733200	-29.188560	-20.856970	 121.276000	 60.245230	 62.883430	-141.527300	 88.575770	 30.995540	 2.561643
 0.062455	 0.419331	 0.123155	-106.611500	-1.462278	-155.878800	-0.000029	-71.966360	 180.000000	-0.000009	 27.986970	 0.000000	 0.000000	 1.202067	 0.000000	 0.000000	-10.243090	-0.000000	 148.635400	-78.341930	-108.121200	-46.187490	 22.733210	-56.854090	-48.916850	-54.869970	-79.330090	 23.133540	-37.083180	 20.682050	-148.635400	-78.341930	 108.121200	 35.209200	 26.496890	 60.319270	 87.149570	-63.752830	 92.781560	 70.022900	-0.929066	 21.392300	-90.000010	-0.000009	-180.000000	 52.958800	 25.449360	-151.104300	 66.136670	-16.283870	-125.859600	 53.819190	 82.111930	 42.306220	-88.575780	 30.995550	-2.561642	 136.308600	-7.310078	 142.776700	-21.067280	-21.774450	 125.188100	 60.858300	 62.253960	-141.524800	 88.575770	 30.995540	 2.561643
 0.074736	 0.418609	 0.108431	-108.182500	 3.448460	-157.341400	-0.000029	-71.966360	 180.000000	-0.000009	 27.986970	 0.000000	 0.000000	 1.202067	 0.000000	 0.000000	-10.243090	-0.000000	 148.635400	-78.341930	-108.121200	-44.088330	 24.379360	-55.508040	-49.698520	-54.008460	-83.529620	 29.458850	-43.399390	 24.978690	-148.635400	-78.341930	 108.121200	 32.390550	 29.691430	 57.099410	 77.147530	-60.045060	 88.631230	 73.277670	-4.219066	 32.393010	-90.000010	-0.000009	-180.000000	 43.164090	 31.469640	-140.518000	 59.813690	-16.724830	-128.385100	 56.368650	 78.844230	 38.827780	-88.575780	 30.995550	-2.561642	 144.159500	-13.861410	 134.291200	-4.762434	-23.029670	 132.256100	 61.700600	 61.021930	-141.403300	 88.575770	 30.995540	 2.561643
 0.074736	 0.418609	 0.108431	-108.182500	 3.448460	-157.341400	-0.000029	-71.966360	 180.000000	-0.000009	 27.986970	 0.000000	 0.000000	 1.202067	 0.000000	 0.000000	-10.243090	-0.000000	 148.635400	-78.341930	-108.121200	-44.088380	 24.379300	-55.508090	-49.698520	-54.008490	-83.529620	 29.458860	-43.399300	 24.978740	-148.635400	-78.341930	 108.121200	 32.390620	 29.691400	 57.099390	 77.147460	-60.045050	 88.631170	 73.277670	-4.219070	 32.392980	-90.000010	-0.000009	-180.000000	 43.164120	 31.469650	-140.518000	 59.813740	-16.724820	-128.385100	 56.368720	 78.844190	 38.827720	-88.575780	 30.995550	-2.561642	 144.159500	-13.861370	 134.291200	-4.762502	-23.029660	 132.256100	 61.700600	 61.021930	-141.403300	 88.575770	 30.995540	 2.561643
 0.074736	 0.418609	 0.108431	-108.182500	 3.448460	-157.341400	-0.000029	-71.966360	 180.000000	-0.000009	 27.986970	 0.000000	 0.000000	 1.202067	 0.000000	 0.000000	-10.243090	-0.000000	 148.635400	-78.341930	-108.121200	-44.088500	 24.379170	-55.508240	-49.698380	-54.008530	-83.529480	 29.458980	-43.399130	 24.978880	-148.635400	-78.341930	 108.121200	 32.390790	 29.691370	 57.099340	 77.147340	-60.045030	 88.631070	 73.277650	-4.219083	 32.392880	-90.000010	-0.000009	-180.000000	 43.164130	 31.469600	-140.518000	 59.813690	-16.724830	-128.385000	 56.368880	 78.844160	 38.827570	-88.575780	 30.995550	-2.561642	 144.159400	-13.861290	 134.291300	-4.762613	-23.029640	 132.256000	 61.700600	 61.021990	-141.403300	 88.575770	 30.995540	 2.561643
 0.074736	 0.418609	 0.108431	-108.182500	 3.448460	-157.341400	-0.000029	-71.966360	 180.000000	-0.000009	 27.986970	 0.000000	 0.000000	 1.202067	 0.000000	 0.000000	-10.243090	-0.000000	 148.635400	-78.341930	-108.121200	-44.088530	 24.379140	-55.508300	-49.698370	-54.008570	-83.529510	 29.459020	-43.399040	 24.978960	-148.635400	-78.341930	 108.121200	 32.390870	 29.691310	 57.099310	 77.147260	-60.045040	 88.630970	 73.277640	-4.219076	 32.392830	-90.000010	-0.000009	-180.000000	 43.164180	 31.469620	-140.518100	 59.813790	-16.724850	-128.385000	 56.368750	 78.844120	 38.827680	-88.575780	 30.995550	-2.561642	 144.159400	-13.861280	 134.291300	-4.762625	-23.029620	 132.255900	 61.700620	 61.022000	-141.403300	 88.575770	 30.995540	 2.561643
 0.074736	 0.418609	 0.108431	-108.182500	 3.448460	-157.341400	-0.000029	-71.966360	 180.000000	-0.000009	 27.986970	 0.000000	 0.000000	 1.202067	 0.000000	 0.000000	-10.243090	-0.000000	 148.635400	-78.341930	-108.121200	-44.088550	 24.379090	-55.508360	-49.698400	-54.008600	-83.529560	 29.459060	-43.398940	 24.979010	-148.635400	-78.341930	 108.121200	 32.390950	 29.691290	 57.099280	 77.147200	-60.045010	 88.630920	 73.277630	-4.219092	 32.392800	-90.000010	-0.000009	-180.000000	 43.164200	 31.469590	-140.518100	 59.813780	-16.724840	-128.384900	 56.368900	 78.844090	 38.827540	-88.575780	 30.995550	-2.561642	 144.159400	-13.861250	 134.291300	-4.762685	-23.029620	 132.255900	 61.700620	 61.022020	-141.403300	 88.575770	 30.995540	 2.561643
